<mxfile host="app.diagrams.net" agent="Mozilla/5.0 (Macintosh; Intel Mac OS X 10_15_7) AppleWebKit/605.1.15 (KHTML, like Gecko) Version/17.2.1 Safari/605.1.15" version="24.8.6">
  <diagram name="Sida-1" id="aEJ8TClAQQ043p-pL9k2">
    <mxGraphModel dx="1020" dy="604" grid="1" gridSize="10" guides="1" tooltips="1" connect="1" arrows="1" fold="1" page="1" pageScale="1" pageWidth="827" pageHeight="1169" math="0" shadow="0">
      <root>
        <mxCell id="0" />
        <mxCell id="1" parent="0" />
        <mxCell id="JDxc8rM6WF3rHRi5hyL5-1" value="&lt;b&gt;Use-case Diagram&lt;/b&gt;" style="text;html=1;align=center;verticalAlign=middle;whiteSpace=wrap;rounded=0;" parent="1" vertex="1">
          <mxGeometry x="30" y="10" width="60" height="30" as="geometry" />
        </mxCell>
        <mxCell id="JDxc8rM6WF3rHRi5hyL5-2" value="Actor" style="shape=umlActor;verticalLabelPosition=bottom;verticalAlign=top;html=1;outlineConnect=0;" parent="1" vertex="1">
          <mxGeometry x="50" y="80" width="20" height="40" as="geometry" />
        </mxCell>
        <mxCell id="JDxc8rM6WF3rHRi5hyL5-3" value="Klippa ut" style="ellipse;whiteSpace=wrap;html=1;" parent="1" vertex="1">
          <mxGeometry x="200" y="20" width="70" height="40" as="geometry" />
        </mxCell>
        <mxCell id="JDxc8rM6WF3rHRi5hyL5-4" value="Skriva in text" style="ellipse;whiteSpace=wrap;html=1;" parent="1" vertex="1">
          <mxGeometry x="190" y="80" width="80" height="40" as="geometry" />
        </mxCell>
        <mxCell id="JDxc8rM6WF3rHRi5hyL5-6" value="Kopiera" style="ellipse;whiteSpace=wrap;html=1;" parent="1" vertex="1">
          <mxGeometry x="140" y="210" width="80" height="40" as="geometry" />
        </mxCell>
        <mxCell id="JDxc8rM6WF3rHRi5hyL5-7" value="Klistra in" style="ellipse;whiteSpace=wrap;html=1;" parent="1" vertex="1">
          <mxGeometry x="180" y="150" width="80" height="40" as="geometry" />
        </mxCell>
        <mxCell id="JDxc8rM6WF3rHRi5hyL5-8" value="" style="endArrow=none;html=1;rounded=0;exitX=1;exitY=1;exitDx=0;exitDy=0;exitPerimeter=0;" parent="1" source="JDxc8rM6WF3rHRi5hyL5-2" target="JDxc8rM6WF3rHRi5hyL5-3" edge="1">
          <mxGeometry width="50" height="50" relative="1" as="geometry">
            <mxPoint x="380" y="280" as="sourcePoint" />
            <mxPoint x="430" y="230" as="targetPoint" />
          </mxGeometry>
        </mxCell>
        <mxCell id="JDxc8rM6WF3rHRi5hyL5-9" value="" style="endArrow=none;html=1;rounded=0;exitX=1;exitY=1;exitDx=0;exitDy=0;exitPerimeter=0;entryX=0;entryY=0.5;entryDx=0;entryDy=0;" parent="1" source="JDxc8rM6WF3rHRi5hyL5-2" target="JDxc8rM6WF3rHRi5hyL5-4" edge="1">
          <mxGeometry width="50" height="50" relative="1" as="geometry">
            <mxPoint x="80" y="130" as="sourcePoint" />
            <mxPoint x="223" y="101" as="targetPoint" />
          </mxGeometry>
        </mxCell>
        <mxCell id="JDxc8rM6WF3rHRi5hyL5-10" value="" style="endArrow=none;html=1;rounded=0;entryX=0.033;entryY=0.275;entryDx=0;entryDy=0;entryPerimeter=0;" parent="1" target="JDxc8rM6WF3rHRi5hyL5-7" edge="1">
          <mxGeometry width="50" height="50" relative="1" as="geometry">
            <mxPoint x="70" y="120" as="sourcePoint" />
            <mxPoint x="230" y="200" as="targetPoint" />
          </mxGeometry>
        </mxCell>
        <mxCell id="JDxc8rM6WF3rHRi5hyL5-11" value="" style="endArrow=none;html=1;rounded=0;entryX=0.208;entryY=0.113;entryDx=0;entryDy=0;entryPerimeter=0;" parent="1" target="JDxc8rM6WF3rHRi5hyL5-6" edge="1">
          <mxGeometry width="50" height="50" relative="1" as="geometry">
            <mxPoint x="70" y="120" as="sourcePoint" />
            <mxPoint x="214" y="312" as="targetPoint" />
          </mxGeometry>
        </mxCell>
        <mxCell id="JDxc8rM6WF3rHRi5hyL5-14" value="&lt;b&gt;Class-Diagram&lt;/b&gt;" style="text;html=1;align=center;verticalAlign=middle;whiteSpace=wrap;rounded=0;" parent="1" vertex="1">
          <mxGeometry x="720" y="10" width="60" height="30" as="geometry" />
        </mxCell>
        <mxCell id="JDxc8rM6WF3rHRi5hyL5-15" value="&lt;b&gt;Sekvens-Diagram&lt;/b&gt;" style="text;html=1;align=center;verticalAlign=middle;whiteSpace=wrap;rounded=0;" parent="1" vertex="1">
          <mxGeometry x="370" y="10" width="60" height="30" as="geometry" />
        </mxCell>
        <mxCell id="wFDXV37nP9_1kI2Ee2_L-1" value="&lt;b&gt;Class-Diagram&lt;/b&gt;" style="text;html=1;align=center;verticalAlign=middle;whiteSpace=wrap;rounded=0;fillColor=#e1d5e7;strokeColor=#9673a6;" vertex="1" parent="1">
          <mxGeometry x="628.75" y="30" width="60" height="30" as="geometry" />
        </mxCell>
        <mxCell id="wFDXV37nP9_1kI2Ee2_L-2" value="&lt;b&gt;Sekvens-Diagram&lt;/b&gt;" style="text;html=1;align=center;verticalAlign=middle;whiteSpace=wrap;rounded=0;fillColor=#dae8fc;strokeColor=#6c8ebf;" vertex="1" parent="1">
          <mxGeometry x="210" y="520" width="60" height="30" as="geometry" />
        </mxCell>
        <mxCell id="wFDXV37nP9_1kI2Ee2_L-3" value="&lt;span style=&quot;caret-color: rgb(0, 0, 0); color: rgb(0, 0, 0); font-family: Helvetica; font-size: 12.000001px; font-style: normal; font-variant-caps: normal; letter-spacing: normal; text-align: center; text-indent: 0px; text-transform: none; white-space: normal; word-spacing: 0px; -webkit-text-stroke-width: 0px; background-color: rgb(251, 251, 251); text-decoration: none; float: none; display: inline !important;&quot;&gt;&lt;b&gt;saveFile&lt;/b&gt;&lt;/span&gt;" style="text;whiteSpace=wrap;html=1;" vertex="1" parent="1">
          <mxGeometry x="85" y="565" width="90" height="40" as="geometry" />
        </mxCell>
        <mxCell id="wFDXV37nP9_1kI2Ee2_L-4" value="user" style="shape=umlActor;verticalLabelPosition=bottom;verticalAlign=top;html=1;fontStyle=1" vertex="1" parent="1">
          <mxGeometry x="30" y="585" width="20" height="45" as="geometry" />
        </mxCell>
        <mxCell id="wFDXV37nP9_1kI2Ee2_L-5" value="" style="endArrow=none;html=1;rounded=0;dashed=1;" edge="1" parent="1" source="wFDXV37nP9_1kI2Ee2_L-8">
          <mxGeometry relative="1" as="geometry">
            <mxPoint x="40" y="670" as="sourcePoint" />
            <mxPoint x="40" y="820" as="targetPoint" />
          </mxGeometry>
        </mxCell>
        <mxCell id="wFDXV37nP9_1kI2Ee2_L-6" value="" style="ellipse;whiteSpace=wrap;html=1;aspect=fixed;fillColor=#dae8fc;strokeColor=#6c8ebf;" vertex="1" parent="1">
          <mxGeometry x="27.5" y="835" width="25" height="25" as="geometry" />
        </mxCell>
        <mxCell id="wFDXV37nP9_1kI2Ee2_L-7" value="" style="endArrow=none;html=1;rounded=0;dashed=1;dashPattern=8 8;" edge="1" parent="1" target="wFDXV37nP9_1kI2Ee2_L-8">
          <mxGeometry relative="1" as="geometry">
            <mxPoint x="40" y="650" as="sourcePoint" />
            <mxPoint x="40" y="820" as="targetPoint" />
          </mxGeometry>
        </mxCell>
        <mxCell id="wFDXV37nP9_1kI2Ee2_L-8" value="user" style="text;html=1;align=center;verticalAlign=middle;whiteSpace=wrap;rounded=0;fontStyle=1" vertex="1" parent="1">
          <mxGeometry x="10" y="810" width="60" height="30" as="geometry" />
        </mxCell>
        <mxCell id="wFDXV37nP9_1kI2Ee2_L-9" value="" style="endArrow=none;html=1;rounded=0;entryX=0.5;entryY=1;entryDx=0;entryDy=0;" edge="1" parent="1" target="wFDXV37nP9_1kI2Ee2_L-6">
          <mxGeometry width="50" height="50" relative="1" as="geometry">
            <mxPoint x="40" y="870" as="sourcePoint" />
            <mxPoint x="400" y="720" as="targetPoint" />
          </mxGeometry>
        </mxCell>
        <mxCell id="wFDXV37nP9_1kI2Ee2_L-10" value="" style="endArrow=none;html=1;rounded=0;" edge="1" parent="1">
          <mxGeometry width="50" height="50" relative="1" as="geometry">
            <mxPoint x="25" y="869.58" as="sourcePoint" />
            <mxPoint x="55" y="869.58" as="targetPoint" />
          </mxGeometry>
        </mxCell>
        <mxCell id="wFDXV37nP9_1kI2Ee2_L-11" value="" style="endArrow=classic;html=1;rounded=0;dashed=1;dashPattern=1 2;fontStyle=0" edge="1" parent="1">
          <mxGeometry width="50" height="50" relative="1" as="geometry">
            <mxPoint x="40" y="680" as="sourcePoint" />
            <mxPoint x="190" y="680" as="targetPoint" />
          </mxGeometry>
        </mxCell>
        <mxCell id="wFDXV37nP9_1kI2Ee2_L-12" value="handleEvent(save)" style="edgeLabel;html=1;align=center;verticalAlign=middle;resizable=0;points=[];" vertex="1" connectable="0" parent="wFDXV37nP9_1kI2Ee2_L-11">
          <mxGeometry x="-0.2443" y="3" relative="1" as="geometry">
            <mxPoint as="offset" />
          </mxGeometry>
        </mxCell>
        <mxCell id="wFDXV37nP9_1kI2Ee2_L-13" value="&lt;b&gt;textEditor&lt;/b&gt;" style="rounded=1;whiteSpace=wrap;html=1;" vertex="1" parent="1">
          <mxGeometry x="160" y="620" width="60" height="30" as="geometry" />
        </mxCell>
        <mxCell id="wFDXV37nP9_1kI2Ee2_L-14" value="" style="endArrow=none;html=1;rounded=0;dashed=1;dashPattern=8 8;" edge="1" parent="1">
          <mxGeometry relative="1" as="geometry">
            <mxPoint x="189.58" y="650" as="sourcePoint" />
            <mxPoint x="190" y="830" as="targetPoint" />
          </mxGeometry>
        </mxCell>
        <mxCell id="wFDXV37nP9_1kI2Ee2_L-15" value="&lt;b&gt;textEditor&lt;/b&gt;" style="rounded=1;whiteSpace=wrap;html=1;" vertex="1" parent="1">
          <mxGeometry x="160" y="820" width="60" height="30" as="geometry" />
        </mxCell>
        <mxCell id="wFDXV37nP9_1kI2Ee2_L-16" value="" style="edgeStyle=elbowEdgeStyle;elbow=horizontal;endArrow=classic;html=1;curved=0;rounded=0;endSize=8;startSize=8;verticalAlign=bottom;horizontal=1;" edge="1" parent="1">
          <mxGeometry width="50" height="50" relative="1" as="geometry">
            <mxPoint x="190" y="733.5699999999999" as="sourcePoint" />
            <mxPoint x="190" y="753.5699999999999" as="targetPoint" />
            <Array as="points">
              <mxPoint x="230" y="733.5699999999999" />
            </Array>
          </mxGeometry>
        </mxCell>
        <mxCell id="wFDXV37nP9_1kI2Ee2_L-17" value="saveFile()" style="edgeLabel;html=1;align=center;verticalAlign=middle;resizable=0;points=[];" vertex="1" connectable="0" parent="wFDXV37nP9_1kI2Ee2_L-16">
          <mxGeometry x="-0.6627" relative="1" as="geometry">
            <mxPoint as="offset" />
          </mxGeometry>
        </mxCell>
        <mxCell id="wFDXV37nP9_1kI2Ee2_L-18" value="" style="edgeStyle=elbowEdgeStyle;elbow=horizontal;endArrow=classic;html=1;curved=0;rounded=0;endSize=8;startSize=8;verticalAlign=bottom;horizontal=1;" edge="1" parent="1">
          <mxGeometry width="50" height="50" relative="1" as="geometry">
            <mxPoint x="190" y="778.5699999999999" as="sourcePoint" />
            <mxPoint x="190" y="798.5699999999999" as="targetPoint" />
            <Array as="points">
              <mxPoint x="230" y="778.5699999999999" />
            </Array>
          </mxGeometry>
        </mxCell>
        <mxCell id="wFDXV37nP9_1kI2Ee2_L-19" value="viewCurr()" style="edgeLabel;html=1;align=center;verticalAlign=middle;resizable=0;points=[];" vertex="1" connectable="0" parent="wFDXV37nP9_1kI2Ee2_L-18">
          <mxGeometry x="-0.6627" y="2" relative="1" as="geometry">
            <mxPoint as="offset" />
          </mxGeometry>
        </mxCell>
        <mxCell id="wFDXV37nP9_1kI2Ee2_L-20" value="&lt;span style=&quot;caret-color: rgb(0, 0, 0); color: rgb(0, 0, 0); font-family: Helvetica; font-size: 12.000001px; font-style: normal; font-variant-caps: normal; letter-spacing: normal; text-align: center; text-indent: 0px; text-transform: none; white-space: normal; word-spacing: 0px; -webkit-text-stroke-width: 0px; background-color: rgb(251, 251, 251); text-decoration: none; float: none; display: inline !important;&quot;&gt;exitFile&lt;/span&gt;" style="text;whiteSpace=wrap;html=1;fontStyle=1" vertex="1" parent="1">
          <mxGeometry x="334" y="565" width="80" height="40" as="geometry" />
        </mxCell>
        <mxCell id="wFDXV37nP9_1kI2Ee2_L-21" value="user" style="shape=umlActor;verticalLabelPosition=bottom;verticalAlign=top;html=1;fontStyle=1" vertex="1" parent="1">
          <mxGeometry x="275" y="585" width="20" height="45" as="geometry" />
        </mxCell>
        <mxCell id="wFDXV37nP9_1kI2Ee2_L-22" value="" style="endArrow=none;html=1;rounded=0;dashed=1;" edge="1" parent="1">
          <mxGeometry relative="1" as="geometry">
            <mxPoint x="285" y="810" as="sourcePoint" />
            <mxPoint x="285" y="820" as="targetPoint" />
          </mxGeometry>
        </mxCell>
        <mxCell id="wFDXV37nP9_1kI2Ee2_L-23" value="" style="ellipse;whiteSpace=wrap;html=1;aspect=fixed;fillColor=#dae8fc;strokeColor=#6c8ebf;" vertex="1" parent="1">
          <mxGeometry x="272.5" y="829.79" width="25" height="25" as="geometry" />
        </mxCell>
        <mxCell id="wFDXV37nP9_1kI2Ee2_L-24" value="" style="endArrow=none;html=1;rounded=0;dashed=1;dashPattern=8 8;" edge="1" parent="1">
          <mxGeometry relative="1" as="geometry">
            <mxPoint x="285" y="650" as="sourcePoint" />
            <mxPoint x="285" y="810" as="targetPoint" />
          </mxGeometry>
        </mxCell>
        <mxCell id="wFDXV37nP9_1kI2Ee2_L-25" value="" style="endArrow=none;html=1;rounded=0;entryX=0.5;entryY=1;entryDx=0;entryDy=0;" edge="1" parent="1" target="wFDXV37nP9_1kI2Ee2_L-23">
          <mxGeometry width="50" height="50" relative="1" as="geometry">
            <mxPoint x="285" y="864.79" as="sourcePoint" />
            <mxPoint x="645" y="714.79" as="targetPoint" />
          </mxGeometry>
        </mxCell>
        <mxCell id="wFDXV37nP9_1kI2Ee2_L-26" value="" style="endArrow=none;html=1;rounded=0;" edge="1" parent="1">
          <mxGeometry width="50" height="50" relative="1" as="geometry">
            <mxPoint x="270" y="864.37" as="sourcePoint" />
            <mxPoint x="300" y="864.37" as="targetPoint" />
          </mxGeometry>
        </mxCell>
        <mxCell id="wFDXV37nP9_1kI2Ee2_L-27" value="" style="endArrow=classic;html=1;rounded=0;dashed=1;dashPattern=1 2;fontStyle=0" edge="1" parent="1">
          <mxGeometry width="50" height="50" relative="1" as="geometry">
            <mxPoint x="285" y="680" as="sourcePoint" />
            <mxPoint x="435" y="680" as="targetPoint" />
          </mxGeometry>
        </mxCell>
        <mxCell id="wFDXV37nP9_1kI2Ee2_L-28" value="handleEvent(exit)" style="edgeLabel;html=1;align=center;verticalAlign=middle;resizable=0;points=[];" vertex="1" connectable="0" parent="wFDXV37nP9_1kI2Ee2_L-27">
          <mxGeometry x="-0.2443" y="3" relative="1" as="geometry">
            <mxPoint as="offset" />
          </mxGeometry>
        </mxCell>
        <mxCell id="wFDXV37nP9_1kI2Ee2_L-29" value="&lt;b&gt;textEditor&lt;/b&gt;" style="rounded=1;whiteSpace=wrap;html=1;" vertex="1" parent="1">
          <mxGeometry x="405" y="620" width="60" height="30" as="geometry" />
        </mxCell>
        <mxCell id="wFDXV37nP9_1kI2Ee2_L-30" value="" style="endArrow=none;html=1;rounded=0;dashed=1;dashPattern=8 8;" edge="1" parent="1">
          <mxGeometry relative="1" as="geometry">
            <mxPoint x="434.58000000000004" y="650" as="sourcePoint" />
            <mxPoint x="435" y="830" as="targetPoint" />
          </mxGeometry>
        </mxCell>
        <mxCell id="wFDXV37nP9_1kI2Ee2_L-31" value="&lt;b&gt;textEditor&lt;/b&gt;" style="rounded=1;whiteSpace=wrap;html=1;" vertex="1" parent="1">
          <mxGeometry x="405" y="810" width="60" height="30" as="geometry" />
        </mxCell>
        <mxCell id="wFDXV37nP9_1kI2Ee2_L-32" value="" style="edgeStyle=elbowEdgeStyle;elbow=horizontal;endArrow=classic;html=1;curved=0;rounded=0;endSize=8;startSize=8;verticalAlign=bottom;horizontal=1;exitX=0.724;exitY=1.05;exitDx=0;exitDy=0;exitPerimeter=0;" edge="1" parent="1" source="wFDXV37nP9_1kI2Ee2_L-97">
          <mxGeometry width="50" height="50" relative="1" as="geometry">
            <mxPoint x="430" y="790" as="sourcePoint" />
            <mxPoint x="430" y="770" as="targetPoint" />
            <Array as="points">
              <mxPoint x="470" y="790" />
            </Array>
          </mxGeometry>
        </mxCell>
        <mxCell id="wFDXV37nP9_1kI2Ee2_L-33" value="exit()" style="edgeLabel;html=1;align=center;verticalAlign=middle;resizable=0;points=[];" vertex="1" connectable="0" parent="wFDXV37nP9_1kI2Ee2_L-32">
          <mxGeometry x="-0.5965" relative="1" as="geometry">
            <mxPoint as="offset" />
          </mxGeometry>
        </mxCell>
        <mxCell id="wFDXV37nP9_1kI2Ee2_L-34" value="&lt;span style=&quot;caret-color: rgb(0, 0, 0); color: rgb(0, 0, 0); font-family: Helvetica; font-size: 12.000001px; font-style: normal; font-variant-caps: normal; letter-spacing: normal; text-align: center; text-indent: 0px; text-transform: none; white-space: normal; word-spacing: 0px; -webkit-text-stroke-width: 0px; background-color: rgb(251, 251, 251); text-decoration: none; float: none; display: inline !important;&quot;&gt;writeText&lt;/span&gt;" style="text;whiteSpace=wrap;html=1;fontStyle=1" vertex="1" parent="1">
          <mxGeometry x="100" y="900" width="80" height="40" as="geometry" />
        </mxCell>
        <mxCell id="wFDXV37nP9_1kI2Ee2_L-35" value="user" style="shape=umlActor;verticalLabelPosition=bottom;verticalAlign=top;html=1;fontStyle=1" vertex="1" parent="1">
          <mxGeometry x="37.5" y="920" width="20" height="45" as="geometry" />
        </mxCell>
        <mxCell id="wFDXV37nP9_1kI2Ee2_L-36" value="" style="endArrow=none;html=1;rounded=0;dashed=1;" edge="1" parent="1">
          <mxGeometry relative="1" as="geometry">
            <mxPoint x="47.5" y="1132.57" as="sourcePoint" />
            <mxPoint x="47.5" y="1142.57" as="targetPoint" />
          </mxGeometry>
        </mxCell>
        <mxCell id="wFDXV37nP9_1kI2Ee2_L-37" value="" style="endArrow=none;html=1;rounded=0;dashed=1;dashPattern=8 8;" edge="1" parent="1" target="wFDXV37nP9_1kI2Ee2_L-91">
          <mxGeometry relative="1" as="geometry">
            <mxPoint x="47.5" y="985" as="sourcePoint" />
            <mxPoint x="47.5" y="1220" as="targetPoint" />
          </mxGeometry>
        </mxCell>
        <mxCell id="wFDXV37nP9_1kI2Ee2_L-38" value="" style="endArrow=classic;html=1;rounded=0;dashed=1;dashPattern=1 2;fontStyle=0" edge="1" parent="1">
          <mxGeometry width="50" height="50" relative="1" as="geometry">
            <mxPoint x="47.5" y="1015" as="sourcePoint" />
            <mxPoint x="197.5" y="1015" as="targetPoint" />
          </mxGeometry>
        </mxCell>
        <mxCell id="wFDXV37nP9_1kI2Ee2_L-39" value="handleEvent(write)" style="edgeLabel;html=1;align=center;verticalAlign=middle;resizable=0;points=[];fontSize=11;" vertex="1" connectable="0" parent="wFDXV37nP9_1kI2Ee2_L-38">
          <mxGeometry x="-0.2443" y="3" relative="1" as="geometry">
            <mxPoint as="offset" />
          </mxGeometry>
        </mxCell>
        <mxCell id="wFDXV37nP9_1kI2Ee2_L-40" value="&lt;b&gt;textEditor&lt;/b&gt;" style="rounded=1;whiteSpace=wrap;html=1;" vertex="1" parent="1">
          <mxGeometry x="167.5" y="955" width="60" height="30" as="geometry" />
        </mxCell>
        <mxCell id="wFDXV37nP9_1kI2Ee2_L-41" value="" style="endArrow=none;html=1;rounded=0;dashed=1;dashPattern=8 8;entryX=0.5;entryY=0;entryDx=0;entryDy=0;" edge="1" parent="1" target="wFDXV37nP9_1kI2Ee2_L-42">
          <mxGeometry relative="1" as="geometry">
            <mxPoint x="197.08000000000004" y="985" as="sourcePoint" />
            <mxPoint x="197.5" y="1165" as="targetPoint" />
          </mxGeometry>
        </mxCell>
        <mxCell id="wFDXV37nP9_1kI2Ee2_L-42" value="&lt;b&gt;textEditor&lt;/b&gt;" style="rounded=1;whiteSpace=wrap;html=1;" vertex="1" parent="1">
          <mxGeometry x="167.5" y="1164.8" width="60" height="30" as="geometry" />
        </mxCell>
        <mxCell id="wFDXV37nP9_1kI2Ee2_L-43" value="" style="edgeStyle=elbowEdgeStyle;elbow=horizontal;endArrow=classic;html=1;curved=0;rounded=0;endSize=8;startSize=8;verticalAlign=bottom;horizontal=1;" edge="1" parent="1">
          <mxGeometry width="50" height="50" relative="1" as="geometry">
            <mxPoint x="197.5" y="1030" as="sourcePoint" />
            <mxPoint x="197.5" y="1050" as="targetPoint" />
            <Array as="points">
              <mxPoint x="237.5" y="1030" />
            </Array>
          </mxGeometry>
        </mxCell>
        <mxCell id="wFDXV37nP9_1kI2Ee2_L-44" value="readText()" style="edgeLabel;html=1;align=center;verticalAlign=middle;resizable=0;points=[];" vertex="1" connectable="0" parent="wFDXV37nP9_1kI2Ee2_L-43">
          <mxGeometry x="-0.3998" relative="1" as="geometry">
            <mxPoint as="offset" />
          </mxGeometry>
        </mxCell>
        <mxCell id="wFDXV37nP9_1kI2Ee2_L-45" value="" style="edgeStyle=elbowEdgeStyle;elbow=horizontal;endArrow=classic;html=1;curved=0;rounded=0;endSize=8;startSize=8;verticalAlign=bottom;horizontal=1;" edge="1" parent="1">
          <mxGeometry width="50" height="50" relative="1" as="geometry">
            <mxPoint x="197.5" y="1121.43" as="sourcePoint" />
            <mxPoint x="197.5" y="1141.43" as="targetPoint" />
            <Array as="points">
              <mxPoint x="237.5" y="1121.43" />
            </Array>
          </mxGeometry>
        </mxCell>
        <mxCell id="wFDXV37nP9_1kI2Ee2_L-46" value="viewCurr()" style="edgeLabel;html=1;align=center;verticalAlign=middle;resizable=0;points=[];" vertex="1" connectable="0" parent="wFDXV37nP9_1kI2Ee2_L-45">
          <mxGeometry x="-0.6213" relative="1" as="geometry">
            <mxPoint as="offset" />
          </mxGeometry>
        </mxCell>
        <mxCell id="wFDXV37nP9_1kI2Ee2_L-47" value="" style="ellipse;whiteSpace=wrap;html=1;aspect=fixed;fillColor=#dae8fc;strokeColor=#6c8ebf;" vertex="1" parent="1">
          <mxGeometry x="32.5" y="1153.9399999999998" width="25" height="25" as="geometry" />
        </mxCell>
        <mxCell id="wFDXV37nP9_1kI2Ee2_L-48" value="" style="endArrow=none;html=1;rounded=0;entryX=0.5;entryY=1;entryDx=0;entryDy=0;" edge="1" parent="1" target="wFDXV37nP9_1kI2Ee2_L-47">
          <mxGeometry width="50" height="50" relative="1" as="geometry">
            <mxPoint x="45" y="1188.9399999999998" as="sourcePoint" />
            <mxPoint x="405" y="1038.9399999999998" as="targetPoint" />
          </mxGeometry>
        </mxCell>
        <mxCell id="wFDXV37nP9_1kI2Ee2_L-49" value="" style="endArrow=none;html=1;rounded=0;" edge="1" parent="1">
          <mxGeometry width="50" height="50" relative="1" as="geometry">
            <mxPoint x="30" y="1188.5199999999998" as="sourcePoint" />
            <mxPoint x="60" y="1188.5199999999998" as="targetPoint" />
          </mxGeometry>
        </mxCell>
        <mxCell id="wFDXV37nP9_1kI2Ee2_L-50" value="&lt;span style=&quot;caret-color: rgb(0, 0, 0); color: rgb(0, 0, 0); font-family: Helvetica; font-size: 12.000001px; font-style: normal; font-variant-caps: normal; letter-spacing: normal; text-align: center; text-indent: 0px; text-transform: none; white-space: normal; word-spacing: 0px; -webkit-text-stroke-width: 0px; background-color: rgb(251, 251, 251); text-decoration: none; float: none; display: inline !important;&quot;&gt;&lt;b&gt;pasteText&lt;/b&gt;&lt;/span&gt;" style="text;whiteSpace=wrap;html=1;" vertex="1" parent="1">
          <mxGeometry x="375" y="900" width="90" height="40" as="geometry" />
        </mxCell>
        <mxCell id="wFDXV37nP9_1kI2Ee2_L-51" value="user" style="shape=umlActor;verticalLabelPosition=bottom;verticalAlign=top;html=1;fontStyle=1" vertex="1" parent="1">
          <mxGeometry x="325" y="940" width="20" height="45" as="geometry" />
        </mxCell>
        <mxCell id="wFDXV37nP9_1kI2Ee2_L-52" value="" style="endArrow=none;html=1;rounded=0;dashed=1;" edge="1" parent="1">
          <mxGeometry relative="1" as="geometry">
            <mxPoint x="335" y="1157.2299999999998" as="sourcePoint" />
            <mxPoint x="335" y="1167.2299999999998" as="targetPoint" />
          </mxGeometry>
        </mxCell>
        <mxCell id="wFDXV37nP9_1kI2Ee2_L-53" value="" style="ellipse;whiteSpace=wrap;html=1;aspect=fixed;fillColor=#dae8fc;strokeColor=#6c8ebf;" vertex="1" parent="1">
          <mxGeometry x="322.5" y="1182.2299999999998" width="25" height="25" as="geometry" />
        </mxCell>
        <mxCell id="wFDXV37nP9_1kI2Ee2_L-54" value="" style="endArrow=none;html=1;rounded=0;dashed=1;dashPattern=8 8;" edge="1" parent="1">
          <mxGeometry relative="1" as="geometry">
            <mxPoint x="335" y="1005" as="sourcePoint" />
            <mxPoint x="335" y="1165" as="targetPoint" />
          </mxGeometry>
        </mxCell>
        <mxCell id="wFDXV37nP9_1kI2Ee2_L-55" value="" style="endArrow=none;html=1;rounded=0;entryX=0.5;entryY=1;entryDx=0;entryDy=0;" edge="1" parent="1" target="wFDXV37nP9_1kI2Ee2_L-53">
          <mxGeometry width="50" height="50" relative="1" as="geometry">
            <mxPoint x="335" y="1217.2299999999998" as="sourcePoint" />
            <mxPoint x="695" y="1067.2299999999998" as="targetPoint" />
          </mxGeometry>
        </mxCell>
        <mxCell id="wFDXV37nP9_1kI2Ee2_L-56" value="" style="endArrow=none;html=1;rounded=0;" edge="1" parent="1">
          <mxGeometry width="50" height="50" relative="1" as="geometry">
            <mxPoint x="320" y="1216.8099999999997" as="sourcePoint" />
            <mxPoint x="350" y="1216.8099999999997" as="targetPoint" />
          </mxGeometry>
        </mxCell>
        <mxCell id="wFDXV37nP9_1kI2Ee2_L-57" value="" style="endArrow=classic;html=1;rounded=0;dashed=1;dashPattern=1 2;fontStyle=0" edge="1" parent="1">
          <mxGeometry width="50" height="50" relative="1" as="geometry">
            <mxPoint x="335" y="1035" as="sourcePoint" />
            <mxPoint x="485" y="1035" as="targetPoint" />
          </mxGeometry>
        </mxCell>
        <mxCell id="wFDXV37nP9_1kI2Ee2_L-58" value="handleEvent(paste)" style="edgeLabel;html=1;align=center;verticalAlign=middle;resizable=0;points=[];" vertex="1" connectable="0" parent="wFDXV37nP9_1kI2Ee2_L-57">
          <mxGeometry x="-0.2443" y="3" relative="1" as="geometry">
            <mxPoint as="offset" />
          </mxGeometry>
        </mxCell>
        <mxCell id="wFDXV37nP9_1kI2Ee2_L-59" value="&lt;b&gt;textEditor&lt;/b&gt;" style="rounded=1;whiteSpace=wrap;html=1;" vertex="1" parent="1">
          <mxGeometry x="455" y="975" width="60" height="30" as="geometry" />
        </mxCell>
        <mxCell id="wFDXV37nP9_1kI2Ee2_L-60" value="" style="endArrow=none;html=1;rounded=0;dashed=1;dashPattern=8 8;" edge="1" parent="1">
          <mxGeometry relative="1" as="geometry">
            <mxPoint x="484.58000000000004" y="1005" as="sourcePoint" />
            <mxPoint x="485" y="1185" as="targetPoint" />
          </mxGeometry>
        </mxCell>
        <mxCell id="wFDXV37nP9_1kI2Ee2_L-61" value="&lt;b&gt;textEditor&lt;/b&gt;" style="rounded=1;whiteSpace=wrap;html=1;" vertex="1" parent="1">
          <mxGeometry x="455" y="1187.5" width="60" height="30" as="geometry" />
        </mxCell>
        <mxCell id="wFDXV37nP9_1kI2Ee2_L-62" value="" style="edgeStyle=elbowEdgeStyle;elbow=horizontal;endArrow=classic;html=1;curved=0;rounded=0;endSize=8;startSize=8;verticalAlign=bottom;horizontal=1;" edge="1" parent="1">
          <mxGeometry width="50" height="50" relative="1" as="geometry">
            <mxPoint x="480" y="1100" as="sourcePoint" />
            <mxPoint x="480" y="1120" as="targetPoint" />
            <Array as="points">
              <mxPoint x="520" y="1100" />
            </Array>
          </mxGeometry>
        </mxCell>
        <mxCell id="wFDXV37nP9_1kI2Ee2_L-63" value="insertText()" style="edgeLabel;html=1;align=center;verticalAlign=middle;resizable=0;points=[];" vertex="1" connectable="0" parent="wFDXV37nP9_1kI2Ee2_L-62">
          <mxGeometry x="-0.497" y="1" relative="1" as="geometry">
            <mxPoint as="offset" />
          </mxGeometry>
        </mxCell>
        <mxCell id="wFDXV37nP9_1kI2Ee2_L-64" value="" style="edgeStyle=elbowEdgeStyle;elbow=horizontal;endArrow=classic;html=1;curved=0;rounded=0;endSize=8;startSize=8;verticalAlign=bottom;horizontal=1;" edge="1" parent="1">
          <mxGeometry width="50" height="50" relative="1" as="geometry">
            <mxPoint x="480" y="1140" as="sourcePoint" />
            <mxPoint x="480" y="1160" as="targetPoint" />
            <Array as="points">
              <mxPoint x="520" y="1140" />
            </Array>
          </mxGeometry>
        </mxCell>
        <mxCell id="wFDXV37nP9_1kI2Ee2_L-65" value="viewCurr()" style="edgeLabel;html=1;align=center;verticalAlign=middle;resizable=0;points=[];" vertex="1" connectable="0" parent="wFDXV37nP9_1kI2Ee2_L-64">
          <mxGeometry x="-0.5998" relative="1" as="geometry">
            <mxPoint as="offset" />
          </mxGeometry>
        </mxCell>
        <mxCell id="wFDXV37nP9_1kI2Ee2_L-66" value="&lt;span style=&quot;caret-color: rgb(0, 0, 0); color: rgb(0, 0, 0); font-family: Helvetica; font-size: 12.000001px; font-style: normal; font-variant-caps: normal; letter-spacing: normal; text-align: center; text-indent: 0px; text-transform: none; white-space: normal; word-spacing: 0px; -webkit-text-stroke-width: 0px; background-color: rgb(251, 251, 251); text-decoration: none; float: none; display: inline !important;&quot;&gt;&lt;b&gt;editFile&lt;/b&gt;&lt;/span&gt;" style="text;whiteSpace=wrap;html=1;" vertex="1" parent="1">
          <mxGeometry x="100" y="1320" width="90" height="40" as="geometry" />
        </mxCell>
        <mxCell id="wFDXV37nP9_1kI2Ee2_L-67" value="user" style="shape=umlActor;verticalLabelPosition=bottom;verticalAlign=top;html=1;fontStyle=1" vertex="1" parent="1">
          <mxGeometry x="47.5" y="1360" width="20" height="45" as="geometry" />
        </mxCell>
        <mxCell id="wFDXV37nP9_1kI2Ee2_L-68" value="" style="endArrow=none;html=1;rounded=0;dashed=1;" edge="1" parent="1">
          <mxGeometry relative="1" as="geometry">
            <mxPoint x="57.5" y="1585" as="sourcePoint" />
            <mxPoint x="57.5" y="1595" as="targetPoint" />
          </mxGeometry>
        </mxCell>
        <mxCell id="wFDXV37nP9_1kI2Ee2_L-69" value="" style="endArrow=none;html=1;rounded=0;dashed=1;dashPattern=8 8;" edge="1" parent="1">
          <mxGeometry relative="1" as="geometry">
            <mxPoint x="57.5" y="1425" as="sourcePoint" />
            <mxPoint x="58" y="1720" as="targetPoint" />
          </mxGeometry>
        </mxCell>
        <mxCell id="wFDXV37nP9_1kI2Ee2_L-70" value="" style="endArrow=classic;html=1;rounded=0;dashed=1;dashPattern=1 2;fontStyle=0" edge="1" parent="1">
          <mxGeometry width="50" height="50" relative="1" as="geometry">
            <mxPoint x="57.5" y="1455" as="sourcePoint" />
            <mxPoint x="207.5" y="1455" as="targetPoint" />
          </mxGeometry>
        </mxCell>
        <mxCell id="wFDXV37nP9_1kI2Ee2_L-71" value="handleEvent(edit)" style="edgeLabel;html=1;align=center;verticalAlign=middle;resizable=0;points=[];fontSize=11;" vertex="1" connectable="0" parent="wFDXV37nP9_1kI2Ee2_L-70">
          <mxGeometry x="-0.2443" y="3" relative="1" as="geometry">
            <mxPoint as="offset" />
          </mxGeometry>
        </mxCell>
        <mxCell id="wFDXV37nP9_1kI2Ee2_L-72" value="&lt;b&gt;textEditor&lt;/b&gt;" style="rounded=1;whiteSpace=wrap;html=1;" vertex="1" parent="1">
          <mxGeometry x="177.5" y="1395" width="60" height="30" as="geometry" />
        </mxCell>
        <mxCell id="wFDXV37nP9_1kI2Ee2_L-73" value="" style="endArrow=none;html=1;rounded=0;dashed=1;dashPattern=8 8;entryX=0.5;entryY=0;entryDx=0;entryDy=0;" edge="1" parent="1" target="wFDXV37nP9_1kI2Ee2_L-74">
          <mxGeometry relative="1" as="geometry">
            <mxPoint x="207.08000000000004" y="1425" as="sourcePoint" />
            <mxPoint x="207.5" y="1605" as="targetPoint" />
          </mxGeometry>
        </mxCell>
        <mxCell id="wFDXV37nP9_1kI2Ee2_L-74" value="&lt;b&gt;textEditor&lt;/b&gt;" style="rounded=1;whiteSpace=wrap;html=1;" vertex="1" parent="1">
          <mxGeometry x="177.5" y="1700" width="60" height="30" as="geometry" />
        </mxCell>
        <mxCell id="wFDXV37nP9_1kI2Ee2_L-75" value="" style="ellipse;whiteSpace=wrap;html=1;aspect=fixed;fillColor=#dae8fc;strokeColor=#6c8ebf;" vertex="1" parent="1">
          <mxGeometry x="45" y="1666" width="25" height="25" as="geometry" />
        </mxCell>
        <mxCell id="wFDXV37nP9_1kI2Ee2_L-76" value="" style="endArrow=none;html=1;rounded=0;entryX=0.5;entryY=1;entryDx=0;entryDy=0;" edge="1" parent="1" target="wFDXV37nP9_1kI2Ee2_L-75">
          <mxGeometry width="50" height="50" relative="1" as="geometry">
            <mxPoint x="57.5" y="1701" as="sourcePoint" />
            <mxPoint x="417.5" y="1551" as="targetPoint" />
          </mxGeometry>
        </mxCell>
        <mxCell id="wFDXV37nP9_1kI2Ee2_L-77" value="" style="endArrow=none;html=1;rounded=0;" edge="1" parent="1">
          <mxGeometry width="50" height="50" relative="1" as="geometry">
            <mxPoint x="42.5" y="1700.58" as="sourcePoint" />
            <mxPoint x="72.5" y="1700.58" as="targetPoint" />
          </mxGeometry>
        </mxCell>
        <mxCell id="wFDXV37nP9_1kI2Ee2_L-78" value="" style=";movable=1;resizable=1;rotatable=1;deletable=1;editable=1;locked=0;connectable=1;" vertex="1" connectable="0" parent="1">
          <mxGeometry x="37.5" y="1470" width="230" height="40" as="geometry" />
        </mxCell>
        <mxCell id="wFDXV37nP9_1kI2Ee2_L-79" value="ref" style="shape=umlFrame;whiteSpace=wrap;html=1;pointerEvents=0;width=60;height=15;" vertex="1" parent="wFDXV37nP9_1kI2Ee2_L-78">
          <mxGeometry width="177.72727272727272" height="28.57142857142857" as="geometry" />
        </mxCell>
        <mxCell id="wFDXV37nP9_1kI2Ee2_L-80" value="cutText" style="text;html=1;align=center;verticalAlign=middle;resizable=0;points=[];autosize=1;strokeColor=none;fillColor=none;fontSize=10;" vertex="1" parent="wFDXV37nP9_1kI2Ee2_L-78">
          <mxGeometry x="69.99587878787878" y="-1.43" width="60" height="30" as="geometry" />
        </mxCell>
        <mxCell id="wFDXV37nP9_1kI2Ee2_L-81" value="" style=";movable=1;resizable=1;rotatable=1;deletable=1;editable=1;locked=0;connectable=1;" vertex="1" connectable="0" parent="1">
          <mxGeometry x="37.5" y="1510" width="230" height="40" as="geometry" />
        </mxCell>
        <mxCell id="wFDXV37nP9_1kI2Ee2_L-82" value="ref" style="shape=umlFrame;whiteSpace=wrap;html=1;pointerEvents=0;width=60;height=15;" vertex="1" parent="wFDXV37nP9_1kI2Ee2_L-81">
          <mxGeometry width="177.72727272727272" height="28.57142857142857" as="geometry" />
        </mxCell>
        <mxCell id="wFDXV37nP9_1kI2Ee2_L-83" value="copyText" style="text;html=1;align=center;verticalAlign=middle;resizable=0;points=[];autosize=1;strokeColor=none;fillColor=none;fontSize=10;" vertex="1" parent="wFDXV37nP9_1kI2Ee2_L-81">
          <mxGeometry x="64.99587878787878" y="-1.43" width="70" height="30" as="geometry" />
        </mxCell>
        <mxCell id="wFDXV37nP9_1kI2Ee2_L-84" value="" style=";movable=1;resizable=1;rotatable=1;deletable=1;editable=1;locked=0;connectable=1;" vertex="1" connectable="0" parent="1">
          <mxGeometry x="37.5" y="1550" width="230" height="40" as="geometry" />
        </mxCell>
        <mxCell id="wFDXV37nP9_1kI2Ee2_L-85" value="ref" style="shape=umlFrame;whiteSpace=wrap;html=1;pointerEvents=0;width=60;height=15;" vertex="1" parent="wFDXV37nP9_1kI2Ee2_L-84">
          <mxGeometry width="177.72727272727272" height="28.57142857142857" as="geometry" />
        </mxCell>
        <mxCell id="wFDXV37nP9_1kI2Ee2_L-86" value="pasteText" style="text;html=1;align=center;verticalAlign=middle;resizable=0;points=[];autosize=1;strokeColor=none;fillColor=none;fontSize=10;" vertex="1" parent="wFDXV37nP9_1kI2Ee2_L-84">
          <mxGeometry x="64.99587878787878" y="-1.43" width="70" height="30" as="geometry" />
        </mxCell>
        <mxCell id="wFDXV37nP9_1kI2Ee2_L-87" value="" style=";movable=1;resizable=1;rotatable=1;deletable=1;editable=1;locked=0;connectable=1;" vertex="1" connectable="0" parent="1">
          <mxGeometry x="37.5" y="1590" width="230" height="40" as="geometry" />
        </mxCell>
        <mxCell id="wFDXV37nP9_1kI2Ee2_L-88" value="ref" style="shape=umlFrame;whiteSpace=wrap;html=1;pointerEvents=0;width=60;height=15;" vertex="1" parent="wFDXV37nP9_1kI2Ee2_L-87">
          <mxGeometry width="177.72727272727272" height="28.57142857142857" as="geometry" />
        </mxCell>
        <mxCell id="wFDXV37nP9_1kI2Ee2_L-89" value="writeText" style="text;html=1;align=center;verticalAlign=middle;resizable=0;points=[];autosize=1;strokeColor=none;fillColor=none;fontSize=10;" vertex="1" parent="wFDXV37nP9_1kI2Ee2_L-87">
          <mxGeometry x="64.99587878787878" y="-1.43" width="70" height="30" as="geometry" />
        </mxCell>
        <mxCell id="wFDXV37nP9_1kI2Ee2_L-90" value="user" style="text;html=1;align=center;verticalAlign=middle;whiteSpace=wrap;rounded=0;fontStyle=1" vertex="1" parent="1">
          <mxGeometry x="305" y="1153.86" width="60" height="30" as="geometry" />
        </mxCell>
        <mxCell id="wFDXV37nP9_1kI2Ee2_L-91" value="user" style="text;html=1;align=center;verticalAlign=middle;whiteSpace=wrap;rounded=0;fontStyle=1" vertex="1" parent="1">
          <mxGeometry x="17.5" y="1126.57" width="60" height="41" as="geometry" />
        </mxCell>
        <mxCell id="wFDXV37nP9_1kI2Ee2_L-92" value="user" style="text;html=1;align=center;verticalAlign=middle;whiteSpace=wrap;rounded=0;fontStyle=1" vertex="1" parent="1">
          <mxGeometry x="25" y="1640" width="60" height="30" as="geometry" />
        </mxCell>
        <mxCell id="wFDXV37nP9_1kI2Ee2_L-93" value="" style="edgeStyle=elbowEdgeStyle;elbow=horizontal;endArrow=classic;html=1;curved=0;rounded=0;endSize=8;startSize=8;verticalAlign=bottom;horizontal=1;" edge="1" parent="1">
          <mxGeometry width="50" height="50" relative="1" as="geometry">
            <mxPoint x="210" y="1630" as="sourcePoint" />
            <mxPoint x="210" y="1650" as="targetPoint" />
            <Array as="points">
              <mxPoint x="250" y="1630" />
            </Array>
          </mxGeometry>
        </mxCell>
        <mxCell id="wFDXV37nP9_1kI2Ee2_L-94" value="editFile()" style="edgeLabel;html=1;align=center;verticalAlign=middle;resizable=0;points=[];" vertex="1" connectable="0" parent="wFDXV37nP9_1kI2Ee2_L-93">
          <mxGeometry x="-0.6541" y="2" relative="1" as="geometry">
            <mxPoint as="offset" />
          </mxGeometry>
        </mxCell>
        <mxCell id="wFDXV37nP9_1kI2Ee2_L-95" value="user" style="text;html=1;align=center;verticalAlign=middle;whiteSpace=wrap;rounded=0;fontStyle=1" vertex="1" parent="1">
          <mxGeometry x="255" y="805" width="60" height="30" as="geometry" />
        </mxCell>
        <mxCell id="wFDXV37nP9_1kI2Ee2_L-96" value="&lt;span style=&quot;caret-color: rgb(0, 0, 0); color: rgb(0, 0, 0); font-family: Helvetica; font-size: 12.000001px; font-style: normal; font-variant-caps: normal; letter-spacing: normal; text-align: center; text-indent: 0px; text-transform: none; white-space: normal; word-spacing: 0px; -webkit-text-stroke-width: 0px; background-color: rgb(251, 251, 251); text-decoration: none; float: none; display: inline !important;&quot;&gt;openFile&lt;/span&gt;" style="text;whiteSpace=wrap;html=1;fontStyle=1" vertex="1" parent="1">
          <mxGeometry x="580" y="565" width="90" height="40" as="geometry" />
        </mxCell>
        <mxCell id="wFDXV37nP9_1kI2Ee2_L-97" value="" style=";movable=1;resizable=1;rotatable=1;deletable=1;editable=1;locked=0;connectable=1;" vertex="1" connectable="0" parent="1">
          <mxGeometry x="270" y="710" width="227.5" height="40" as="geometry" />
        </mxCell>
        <mxCell id="wFDXV37nP9_1kI2Ee2_L-98" value="ref" style="shape=umlFrame;whiteSpace=wrap;html=1;pointerEvents=0;width=60;height=15;" vertex="1" parent="wFDXV37nP9_1kI2Ee2_L-97">
          <mxGeometry width="175.79545454545453" height="28.57142857142857" as="geometry" />
        </mxCell>
        <mxCell id="wFDXV37nP9_1kI2Ee2_L-99" value="saveFile" style="text;html=1;align=center;verticalAlign=middle;resizable=0;points=[];autosize=1;strokeColor=none;fillColor=none;fontSize=10;" vertex="1" parent="wFDXV37nP9_1kI2Ee2_L-97">
          <mxGeometry x="69.28940184453226" y="-1.43" width="60" height="30" as="geometry" />
        </mxCell>
        <mxCell id="wFDXV37nP9_1kI2Ee2_L-100" value="&lt;span style=&quot;caret-color: rgb(0, 0, 0); color: rgb(0, 0, 0); font-family: Helvetica; font-size: 12.000001px; font-style: normal; font-variant-caps: normal; letter-spacing: normal; text-align: center; text-indent: 0px; text-transform: none; white-space: normal; word-spacing: 0px; -webkit-text-stroke-width: 0px; background-color: rgb(251, 251, 251); text-decoration: none; float: none; display: inline !important;&quot;&gt;createFile&lt;/span&gt;" style="text;whiteSpace=wrap;html=1;fontStyle=1" vertex="1" parent="1">
          <mxGeometry x="650" y="900" width="90" height="40" as="geometry" />
        </mxCell>
        <mxCell id="wFDXV37nP9_1kI2Ee2_L-101" value="&lt;span style=&quot;caret-color: rgb(0, 0, 0); color: rgb(0, 0, 0); font-family: Helvetica; font-size: 12.000001px; font-style: normal; font-variant-caps: normal; letter-spacing: normal; text-align: center; text-indent: 0px; text-transform: none; white-space: normal; word-spacing: 0px; -webkit-text-stroke-width: 0px; background-color: rgb(251, 251, 251); text-decoration: none; float: none; display: inline !important;&quot;&gt;&lt;b&gt;saveFileAs&lt;/b&gt;&lt;/span&gt;" style="text;whiteSpace=wrap;html=1;" vertex="1" parent="1">
          <mxGeometry x="355" y="1330" width="100" height="40" as="geometry" />
        </mxCell>
        <mxCell id="wFDXV37nP9_1kI2Ee2_L-102" value="user" style="shape=umlActor;verticalLabelPosition=bottom;verticalAlign=top;html=1;fontStyle=1" vertex="1" parent="1">
          <mxGeometry x="535" y="590" width="20" height="45" as="geometry" />
        </mxCell>
        <mxCell id="wFDXV37nP9_1kI2Ee2_L-103" value="" style="endArrow=none;html=1;rounded=0;dashed=1;" edge="1" parent="1">
          <mxGeometry relative="1" as="geometry">
            <mxPoint x="545" y="825" as="sourcePoint" />
            <mxPoint x="545" y="835" as="targetPoint" />
          </mxGeometry>
        </mxCell>
        <mxCell id="wFDXV37nP9_1kI2Ee2_L-104" value="" style="ellipse;whiteSpace=wrap;html=1;aspect=fixed;fillColor=#dae8fc;strokeColor=#6c8ebf;" vertex="1" parent="1">
          <mxGeometry x="532.5" y="834.85" width="25" height="25" as="geometry" />
        </mxCell>
        <mxCell id="wFDXV37nP9_1kI2Ee2_L-105" value="" style="endArrow=none;html=1;rounded=0;dashed=1;dashPattern=8 8;" edge="1" parent="1" source="wFDXV37nP9_1kI2Ee2_L-141">
          <mxGeometry relative="1" as="geometry">
            <mxPoint x="546.25" y="636.92" as="sourcePoint" />
            <mxPoint x="546.25" y="821.92" as="targetPoint" />
          </mxGeometry>
        </mxCell>
        <mxCell id="wFDXV37nP9_1kI2Ee2_L-106" value="" style="endArrow=none;html=1;rounded=0;entryX=0.5;entryY=1;entryDx=0;entryDy=0;" edge="1" parent="1" target="wFDXV37nP9_1kI2Ee2_L-104">
          <mxGeometry width="50" height="50" relative="1" as="geometry">
            <mxPoint x="545" y="869.85" as="sourcePoint" />
            <mxPoint x="905" y="719.85" as="targetPoint" />
          </mxGeometry>
        </mxCell>
        <mxCell id="wFDXV37nP9_1kI2Ee2_L-107" value="" style="endArrow=none;html=1;rounded=0;" edge="1" parent="1">
          <mxGeometry width="50" height="50" relative="1" as="geometry">
            <mxPoint x="530" y="869.4300000000001" as="sourcePoint" />
            <mxPoint x="560" y="869.4300000000001" as="targetPoint" />
          </mxGeometry>
        </mxCell>
        <mxCell id="wFDXV37nP9_1kI2Ee2_L-108" value="" style="endArrow=classic;html=1;rounded=0;dashed=1;dashPattern=1 2;fontStyle=0" edge="1" parent="1">
          <mxGeometry width="50" height="50" relative="1" as="geometry">
            <mxPoint x="545" y="685" as="sourcePoint" />
            <mxPoint x="695" y="685" as="targetPoint" />
          </mxGeometry>
        </mxCell>
        <mxCell id="wFDXV37nP9_1kI2Ee2_L-109" value="handleEvent(open)" style="edgeLabel;html=1;align=center;verticalAlign=middle;resizable=0;points=[];" vertex="1" connectable="0" parent="wFDXV37nP9_1kI2Ee2_L-108">
          <mxGeometry x="-0.2443" y="3" relative="1" as="geometry">
            <mxPoint as="offset" />
          </mxGeometry>
        </mxCell>
        <mxCell id="wFDXV37nP9_1kI2Ee2_L-110" value="&lt;b&gt;textEditor&lt;/b&gt;" style="rounded=1;whiteSpace=wrap;html=1;" vertex="1" parent="1">
          <mxGeometry x="665" y="625" width="60" height="30" as="geometry" />
        </mxCell>
        <mxCell id="wFDXV37nP9_1kI2Ee2_L-111" value="" style="endArrow=none;html=1;rounded=0;dashed=1;dashPattern=8 8;entryX=0.5;entryY=0;entryDx=0;entryDy=0;" edge="1" parent="1" target="wFDXV37nP9_1kI2Ee2_L-112">
          <mxGeometry relative="1" as="geometry">
            <mxPoint x="694.58" y="655" as="sourcePoint" />
            <mxPoint x="695" y="835" as="targetPoint" />
          </mxGeometry>
        </mxCell>
        <mxCell id="wFDXV37nP9_1kI2Ee2_L-112" value="&lt;b&gt;textEditor&lt;/b&gt;" style="rounded=1;whiteSpace=wrap;html=1;" vertex="1" parent="1">
          <mxGeometry x="665" y="827.2900000000001" width="60" height="30" as="geometry" />
        </mxCell>
        <mxCell id="wFDXV37nP9_1kI2Ee2_L-113" value="" style="edgeStyle=elbowEdgeStyle;elbow=horizontal;endArrow=classic;html=1;curved=0;rounded=0;endSize=8;startSize=8;verticalAlign=bottom;horizontal=1;" edge="1" parent="1">
          <mxGeometry width="50" height="50" relative="1" as="geometry">
            <mxPoint x="690" y="700" as="sourcePoint" />
            <mxPoint x="690" y="720" as="targetPoint" />
            <Array as="points">
              <mxPoint x="730" y="700" />
            </Array>
          </mxGeometry>
        </mxCell>
        <mxCell id="wFDXV37nP9_1kI2Ee2_L-114" value="openFile()" style="edgeLabel;html=1;align=center;verticalAlign=middle;resizable=0;points=[];" vertex="1" connectable="0" parent="wFDXV37nP9_1kI2Ee2_L-113">
          <mxGeometry x="-0.5294" y="1" relative="1" as="geometry">
            <mxPoint as="offset" />
          </mxGeometry>
        </mxCell>
        <mxCell id="wFDXV37nP9_1kI2Ee2_L-115" value="" style="edgeStyle=elbowEdgeStyle;elbow=horizontal;endArrow=classic;html=1;curved=0;rounded=0;endSize=8;startSize=8;verticalAlign=bottom;horizontal=1;" edge="1" parent="1">
          <mxGeometry width="50" height="50" relative="1" as="geometry">
            <mxPoint x="690" y="740" as="sourcePoint" />
            <mxPoint x="690" y="760" as="targetPoint" />
            <Array as="points">
              <mxPoint x="730" y="740" />
            </Array>
          </mxGeometry>
        </mxCell>
        <mxCell id="wFDXV37nP9_1kI2Ee2_L-116" value="readFile()" style="edgeLabel;html=1;align=center;verticalAlign=middle;resizable=0;points=[];" vertex="1" connectable="0" parent="wFDXV37nP9_1kI2Ee2_L-115">
          <mxGeometry x="-0.3998" relative="1" as="geometry">
            <mxPoint x="-5" as="offset" />
          </mxGeometry>
        </mxCell>
        <mxCell id="wFDXV37nP9_1kI2Ee2_L-117" value="" style="edgeStyle=elbowEdgeStyle;elbow=horizontal;endArrow=classic;html=1;curved=0;rounded=0;endSize=8;startSize=8;verticalAlign=bottom;horizontal=1;" edge="1" parent="1">
          <mxGeometry width="50" height="50" relative="1" as="geometry">
            <mxPoint x="482.5" y="1060" as="sourcePoint" />
            <mxPoint x="482.5" y="1080" as="targetPoint" />
            <Array as="points">
              <mxPoint x="522.5" y="1060" />
            </Array>
          </mxGeometry>
        </mxCell>
        <mxCell id="wFDXV37nP9_1kI2Ee2_L-118" value="getContent()" style="edgeLabel;html=1;align=center;verticalAlign=middle;resizable=0;points=[];" vertex="1" connectable="0" parent="wFDXV37nP9_1kI2Ee2_L-117">
          <mxGeometry x="-0.5443" y="-1" relative="1" as="geometry">
            <mxPoint as="offset" />
          </mxGeometry>
        </mxCell>
        <mxCell id="wFDXV37nP9_1kI2Ee2_L-119" value="user" style="shape=umlActor;verticalLabelPosition=bottom;verticalAlign=top;html=1;fontStyle=1" vertex="1" parent="1">
          <mxGeometry x="598.75" y="940" width="20" height="45" as="geometry" />
        </mxCell>
        <mxCell id="wFDXV37nP9_1kI2Ee2_L-120" value="" style="endArrow=none;html=1;rounded=0;dashed=1;" edge="1" parent="1">
          <mxGeometry relative="1" as="geometry">
            <mxPoint x="608.75" y="1157.2299999999998" as="sourcePoint" />
            <mxPoint x="608.75" y="1167.2299999999998" as="targetPoint" />
          </mxGeometry>
        </mxCell>
        <mxCell id="wFDXV37nP9_1kI2Ee2_L-121" value="" style="ellipse;whiteSpace=wrap;html=1;aspect=fixed;fillColor=#dae8fc;strokeColor=#6c8ebf;" vertex="1" parent="1">
          <mxGeometry x="596.25" y="1182.2299999999998" width="25" height="25" as="geometry" />
        </mxCell>
        <mxCell id="wFDXV37nP9_1kI2Ee2_L-122" value="" style="endArrow=none;html=1;rounded=0;dashed=1;dashPattern=8 8;" edge="1" parent="1">
          <mxGeometry relative="1" as="geometry">
            <mxPoint x="608.75" y="1005" as="sourcePoint" />
            <mxPoint x="608.75" y="1165" as="targetPoint" />
          </mxGeometry>
        </mxCell>
        <mxCell id="wFDXV37nP9_1kI2Ee2_L-123" value="" style="endArrow=none;html=1;rounded=0;entryX=0.5;entryY=1;entryDx=0;entryDy=0;" edge="1" parent="1" target="wFDXV37nP9_1kI2Ee2_L-121">
          <mxGeometry width="50" height="50" relative="1" as="geometry">
            <mxPoint x="608.75" y="1217.2299999999998" as="sourcePoint" />
            <mxPoint x="968.75" y="1067.2299999999998" as="targetPoint" />
          </mxGeometry>
        </mxCell>
        <mxCell id="wFDXV37nP9_1kI2Ee2_L-124" value="" style="endArrow=none;html=1;rounded=0;" edge="1" parent="1">
          <mxGeometry width="50" height="50" relative="1" as="geometry">
            <mxPoint x="593.75" y="1216.8099999999997" as="sourcePoint" />
            <mxPoint x="623.75" y="1216.8099999999997" as="targetPoint" />
          </mxGeometry>
        </mxCell>
        <mxCell id="wFDXV37nP9_1kI2Ee2_L-125" value="" style="endArrow=classic;html=1;rounded=0;dashed=1;dashPattern=1 2;fontStyle=0" edge="1" parent="1">
          <mxGeometry width="50" height="50" relative="1" as="geometry">
            <mxPoint x="608.75" y="1035" as="sourcePoint" />
            <mxPoint x="758.75" y="1035" as="targetPoint" />
          </mxGeometry>
        </mxCell>
        <mxCell id="wFDXV37nP9_1kI2Ee2_L-126" value="handleEvent(create)" style="edgeLabel;html=1;align=center;verticalAlign=middle;resizable=0;points=[];" vertex="1" connectable="0" parent="wFDXV37nP9_1kI2Ee2_L-125">
          <mxGeometry x="-0.2443" y="3" relative="1" as="geometry">
            <mxPoint as="offset" />
          </mxGeometry>
        </mxCell>
        <mxCell id="wFDXV37nP9_1kI2Ee2_L-127" value="&lt;b&gt;textEditor&lt;/b&gt;" style="rounded=1;whiteSpace=wrap;html=1;" vertex="1" parent="1">
          <mxGeometry x="728.75" y="975" width="60" height="30" as="geometry" />
        </mxCell>
        <mxCell id="wFDXV37nP9_1kI2Ee2_L-128" value="createFile()" style="edgeLabel;html=1;align=center;verticalAlign=middle;resizable=0;points=[];" vertex="1" connectable="0" parent="1">
          <mxGeometry x="790.0000000000002" y="1061" as="geometry" />
        </mxCell>
        <mxCell id="wFDXV37nP9_1kI2Ee2_L-129" value="" style="edgeStyle=elbowEdgeStyle;elbow=horizontal;endArrow=classic;html=1;curved=0;rounded=0;endSize=8;startSize=8;verticalAlign=bottom;horizontal=1;" edge="1" parent="1">
          <mxGeometry width="50" height="50" relative="1" as="geometry">
            <mxPoint x="197.5" y="690" as="sourcePoint" />
            <mxPoint x="190" y="710" as="targetPoint" />
            <Array as="points">
              <mxPoint x="237.5" y="690" />
            </Array>
          </mxGeometry>
        </mxCell>
        <mxCell id="wFDXV37nP9_1kI2Ee2_L-130" value="readFile()" style="edgeLabel;html=1;align=center;verticalAlign=middle;resizable=0;points=[];" vertex="1" connectable="0" parent="wFDXV37nP9_1kI2Ee2_L-129">
          <mxGeometry x="-0.6627" relative="1" as="geometry">
            <mxPoint as="offset" />
          </mxGeometry>
        </mxCell>
        <mxCell id="wFDXV37nP9_1kI2Ee2_L-131" value="" style="edgeStyle=elbowEdgeStyle;elbow=horizontal;endArrow=classic;html=1;curved=0;rounded=0;endSize=8;startSize=8;verticalAlign=bottom;horizontal=1;" edge="1" parent="1">
          <mxGeometry width="50" height="50" relative="1" as="geometry">
            <mxPoint x="197.5" y="1080" as="sourcePoint" />
            <mxPoint x="197.5" y="1100" as="targetPoint" />
            <Array as="points">
              <mxPoint x="237.5" y="1080" />
            </Array>
          </mxGeometry>
        </mxCell>
        <mxCell id="wFDXV37nP9_1kI2Ee2_L-132" value="writeText()" style="edgeLabel;html=1;align=center;verticalAlign=middle;resizable=0;points=[];" vertex="1" connectable="0" parent="wFDXV37nP9_1kI2Ee2_L-131">
          <mxGeometry x="-0.3998" relative="1" as="geometry">
            <mxPoint x="-7" as="offset" />
          </mxGeometry>
        </mxCell>
        <mxCell id="wFDXV37nP9_1kI2Ee2_L-133" value="" style="edgeStyle=elbowEdgeStyle;elbow=horizontal;endArrow=classic;html=1;curved=0;rounded=0;endSize=8;startSize=8;verticalAlign=bottom;horizontal=1;" edge="1" parent="1">
          <mxGeometry width="50" height="50" relative="1" as="geometry">
            <mxPoint x="210" y="1666" as="sourcePoint" />
            <mxPoint x="210" y="1686" as="targetPoint" />
            <Array as="points">
              <mxPoint x="250" y="1666" />
            </Array>
          </mxGeometry>
        </mxCell>
        <mxCell id="wFDXV37nP9_1kI2Ee2_L-134" value="viewCurr()" style="edgeLabel;html=1;align=center;verticalAlign=middle;resizable=0;points=[];" vertex="1" connectable="0" parent="wFDXV37nP9_1kI2Ee2_L-133">
          <mxGeometry x="-0.6541" y="2" relative="1" as="geometry">
            <mxPoint as="offset" />
          </mxGeometry>
        </mxCell>
        <mxCell id="wFDXV37nP9_1kI2Ee2_L-135" value="&lt;div style=&quot;text-align: center;&quot;&gt;&lt;span style=&quot;font-size: 12px;&quot;&gt;&lt;b&gt;copyText&lt;/b&gt;&lt;/span&gt;&lt;/div&gt;" style="text;whiteSpace=wrap;html=1;" vertex="1" parent="1">
          <mxGeometry x="129.38" y="1790" width="100" height="40" as="geometry" />
        </mxCell>
        <mxCell id="wFDXV37nP9_1kI2Ee2_L-136" value="&lt;div style=&quot;text-align: center;&quot;&gt;&lt;span style=&quot;font-size: 12px;&quot;&gt;&lt;b&gt;cutText&lt;/b&gt;&lt;/span&gt;&lt;/div&gt;" style="text;whiteSpace=wrap;html=1;" vertex="1" parent="1">
          <mxGeometry x="628.75" y="1330" width="100" height="40" as="geometry" />
        </mxCell>
        <mxCell id="wFDXV37nP9_1kI2Ee2_L-137" value="" style=";movable=1;resizable=1;rotatable=1;deletable=1;editable=1;locked=0;connectable=1;" vertex="1" connectable="0" parent="1">
          <mxGeometry x="531.25" y="770" width="227.5" height="40" as="geometry" />
        </mxCell>
        <mxCell id="wFDXV37nP9_1kI2Ee2_L-138" value="ref" style="shape=umlFrame;whiteSpace=wrap;html=1;pointerEvents=0;width=60;height=15;" vertex="1" parent="wFDXV37nP9_1kI2Ee2_L-137">
          <mxGeometry width="175.79545454545453" height="28.57142857142857" as="geometry" />
        </mxCell>
        <mxCell id="wFDXV37nP9_1kI2Ee2_L-139" value="saveFile" style="text;html=1;align=center;verticalAlign=middle;resizable=0;points=[];autosize=1;strokeColor=none;fillColor=none;fontSize=10;" vertex="1" parent="wFDXV37nP9_1kI2Ee2_L-137">
          <mxGeometry x="69.28940184453226" y="-1.43" width="60" height="30" as="geometry" />
        </mxCell>
        <mxCell id="wFDXV37nP9_1kI2Ee2_L-140" value="" style="endArrow=none;html=1;rounded=0;dashed=1;dashPattern=8 8;" edge="1" parent="1" target="wFDXV37nP9_1kI2Ee2_L-141">
          <mxGeometry relative="1" as="geometry">
            <mxPoint x="545" y="655" as="sourcePoint" />
            <mxPoint x="545" y="840" as="targetPoint" />
          </mxGeometry>
        </mxCell>
        <mxCell id="wFDXV37nP9_1kI2Ee2_L-141" value="user" style="text;html=1;align=center;verticalAlign=middle;whiteSpace=wrap;rounded=0;fontStyle=1" vertex="1" parent="1">
          <mxGeometry x="515" y="810" width="60" height="30" as="geometry" />
        </mxCell>
        <mxCell id="wFDXV37nP9_1kI2Ee2_L-142" value="ref" style="shape=umlFrame;whiteSpace=wrap;html=1;pointerEvents=0;width=60;height=15;" vertex="1" parent="1">
          <mxGeometry x="600" y="1113.86" width="175.79545454545453" height="28.57142857142857" as="geometry" />
        </mxCell>
        <mxCell id="wFDXV37nP9_1kI2Ee2_L-143" value="saveFile" style="text;html=1;align=center;verticalAlign=middle;resizable=0;points=[];autosize=1;strokeColor=none;fillColor=none;fontSize=10;" vertex="1" parent="1">
          <mxGeometry x="669.2894018445322" y="1112.4299999999998" width="60" height="30" as="geometry" />
        </mxCell>
        <mxCell id="wFDXV37nP9_1kI2Ee2_L-144" value="" style="endArrow=none;html=1;rounded=0;dashed=1;dashPattern=8 8;entryX=0.5;entryY=0;entryDx=0;entryDy=0;" edge="1" parent="1" target="wFDXV37nP9_1kI2Ee2_L-145">
          <mxGeometry relative="1" as="geometry">
            <mxPoint x="758.33" y="1005" as="sourcePoint" />
            <mxPoint x="760" y="1250" as="targetPoint" />
          </mxGeometry>
        </mxCell>
        <mxCell id="wFDXV37nP9_1kI2Ee2_L-145" value="&lt;b&gt;textEditor&lt;/b&gt;" style="rounded=1;whiteSpace=wrap;html=1;" vertex="1" parent="1">
          <mxGeometry x="728.75" y="1177.2299999999998" width="60" height="30" as="geometry" />
        </mxCell>
        <mxCell id="wFDXV37nP9_1kI2Ee2_L-146" value="user" style="text;html=1;align=center;verticalAlign=middle;whiteSpace=wrap;rounded=0;fontStyle=1" vertex="1" parent="1">
          <mxGeometry x="580" y="1153.86" width="60" height="30" as="geometry" />
        </mxCell>
        <mxCell id="wFDXV37nP9_1kI2Ee2_L-147" value="user" style="shape=umlActor;verticalLabelPosition=bottom;verticalAlign=top;html=1;fontStyle=1" vertex="1" parent="1">
          <mxGeometry x="318.75" y="1370" width="20" height="45" as="geometry" />
        </mxCell>
        <mxCell id="wFDXV37nP9_1kI2Ee2_L-148" value="" style="endArrow=none;html=1;rounded=0;dashed=1;" edge="1" parent="1">
          <mxGeometry relative="1" as="geometry">
            <mxPoint x="326.25" y="1639.5899999999997" as="sourcePoint" />
            <mxPoint x="326.25" y="1649.5899999999997" as="targetPoint" />
          </mxGeometry>
        </mxCell>
        <mxCell id="wFDXV37nP9_1kI2Ee2_L-149" value="" style="ellipse;whiteSpace=wrap;html=1;aspect=fixed;fillColor=#dae8fc;strokeColor=#6c8ebf;" vertex="1" parent="1">
          <mxGeometry x="313.75" y="1664.5899999999997" width="25" height="25" as="geometry" />
        </mxCell>
        <mxCell id="wFDXV37nP9_1kI2Ee2_L-150" value="" style="endArrow=none;html=1;rounded=0;dashed=1;dashPattern=8 8;entryX=0.5;entryY=0;entryDx=0;entryDy=0;" edge="1" parent="1" target="wFDXV37nP9_1kI2Ee2_L-160">
          <mxGeometry relative="1" as="geometry">
            <mxPoint x="328.75" y="1435" as="sourcePoint" />
            <mxPoint x="328.75" y="1595" as="targetPoint" />
          </mxGeometry>
        </mxCell>
        <mxCell id="wFDXV37nP9_1kI2Ee2_L-151" value="" style="endArrow=none;html=1;rounded=0;entryX=0.5;entryY=1;entryDx=0;entryDy=0;" edge="1" parent="1" target="wFDXV37nP9_1kI2Ee2_L-149">
          <mxGeometry width="50" height="50" relative="1" as="geometry">
            <mxPoint x="326.25" y="1699.5899999999997" as="sourcePoint" />
            <mxPoint x="686.25" y="1549.5899999999997" as="targetPoint" />
          </mxGeometry>
        </mxCell>
        <mxCell id="wFDXV37nP9_1kI2Ee2_L-152" value="" style="endArrow=none;html=1;rounded=0;" edge="1" parent="1">
          <mxGeometry width="50" height="50" relative="1" as="geometry">
            <mxPoint x="311.25" y="1699.1699999999996" as="sourcePoint" />
            <mxPoint x="341.25" y="1699.1699999999996" as="targetPoint" />
          </mxGeometry>
        </mxCell>
        <mxCell id="wFDXV37nP9_1kI2Ee2_L-153" value="" style="endArrow=classic;html=1;rounded=0;dashed=1;dashPattern=1 2;fontStyle=0" edge="1" parent="1">
          <mxGeometry width="50" height="50" relative="1" as="geometry">
            <mxPoint x="328.75" y="1465" as="sourcePoint" />
            <mxPoint x="478.75" y="1465" as="targetPoint" />
          </mxGeometry>
        </mxCell>
        <mxCell id="wFDXV37nP9_1kI2Ee2_L-154" value="handleEvent(saveAs)" style="edgeLabel;html=1;align=center;verticalAlign=middle;resizable=0;points=[];" vertex="1" connectable="0" parent="wFDXV37nP9_1kI2Ee2_L-153">
          <mxGeometry x="-0.2443" y="3" relative="1" as="geometry">
            <mxPoint as="offset" />
          </mxGeometry>
        </mxCell>
        <mxCell id="wFDXV37nP9_1kI2Ee2_L-155" value="&lt;b&gt;textEditor&lt;/b&gt;" style="rounded=1;whiteSpace=wrap;html=1;" vertex="1" parent="1">
          <mxGeometry x="448.75" y="1405" width="60" height="30" as="geometry" />
        </mxCell>
        <mxCell id="wFDXV37nP9_1kI2Ee2_L-156" value="" style="edgeStyle=elbowEdgeStyle;elbow=horizontal;endArrow=classic;html=1;curved=0;rounded=0;endSize=8;startSize=8;verticalAlign=bottom;horizontal=1;" edge="1" parent="1">
          <mxGeometry width="50" height="50" relative="1" as="geometry">
            <mxPoint x="487.5" y="1490" as="sourcePoint" />
            <mxPoint x="480" y="1510" as="targetPoint" />
            <Array as="points">
              <mxPoint x="527.5" y="1490" />
            </Array>
          </mxGeometry>
        </mxCell>
        <mxCell id="wFDXV37nP9_1kI2Ee2_L-157" value="setFileName()" style="edgeLabel;html=1;align=center;verticalAlign=middle;resizable=0;points=[];" vertex="1" connectable="0" parent="wFDXV37nP9_1kI2Ee2_L-156">
          <mxGeometry x="-0.5443" y="-1" relative="1" as="geometry">
            <mxPoint as="offset" />
          </mxGeometry>
        </mxCell>
        <mxCell id="wFDXV37nP9_1kI2Ee2_L-158" value="" style="endArrow=none;html=1;rounded=0;dashed=1;dashPattern=8 8;entryX=0.5;entryY=0;entryDx=0;entryDy=0;" edge="1" parent="1" target="wFDXV37nP9_1kI2Ee2_L-159">
          <mxGeometry relative="1" as="geometry">
            <mxPoint x="478.33000000000004" y="1435" as="sourcePoint" />
            <mxPoint x="480" y="1680" as="targetPoint" />
          </mxGeometry>
        </mxCell>
        <mxCell id="wFDXV37nP9_1kI2Ee2_L-159" value="&lt;b&gt;textEditor&lt;/b&gt;" style="rounded=1;whiteSpace=wrap;html=1;" vertex="1" parent="1">
          <mxGeometry x="448.75" y="1649.9999999999998" width="60" height="30" as="geometry" />
        </mxCell>
        <mxCell id="wFDXV37nP9_1kI2Ee2_L-160" value="user" style="text;html=1;align=center;verticalAlign=middle;whiteSpace=wrap;rounded=0;fontStyle=1" vertex="1" parent="1">
          <mxGeometry x="297.5" y="1636.2199999999998" width="60" height="30" as="geometry" />
        </mxCell>
        <mxCell id="wFDXV37nP9_1kI2Ee2_L-161" value="ref" style="shape=umlFrame;whiteSpace=wrap;html=1;pointerEvents=0;width=60;height=15;" vertex="1" parent="1">
          <mxGeometry x="315" y="1589.9999999999995" width="175.79545454545453" height="28.57142857142857" as="geometry" />
        </mxCell>
        <mxCell id="wFDXV37nP9_1kI2Ee2_L-162" value="exitFile" style="text;html=1;align=center;verticalAlign=middle;resizable=0;points=[];autosize=1;strokeColor=none;fillColor=none;fontSize=10;" vertex="1" parent="1">
          <mxGeometry x="383.9994018445322" y="1589.2899999999995" width="60" height="30" as="geometry" />
        </mxCell>
        <mxCell id="wFDXV37nP9_1kI2Ee2_L-163" value="user" style="shape=umlActor;verticalLabelPosition=bottom;verticalAlign=top;html=1;fontStyle=1" vertex="1" parent="1">
          <mxGeometry x="591.25" y="1391.18" width="20" height="45" as="geometry" />
        </mxCell>
        <mxCell id="wFDXV37nP9_1kI2Ee2_L-164" value="" style="endArrow=none;html=1;rounded=0;dashed=1;" edge="1" parent="1">
          <mxGeometry relative="1" as="geometry">
            <mxPoint x="601.25" y="1608.4099999999999" as="sourcePoint" />
            <mxPoint x="601.25" y="1618.4099999999999" as="targetPoint" />
          </mxGeometry>
        </mxCell>
        <mxCell id="wFDXV37nP9_1kI2Ee2_L-165" value="" style="ellipse;whiteSpace=wrap;html=1;aspect=fixed;fillColor=#dae8fc;strokeColor=#6c8ebf;" vertex="1" parent="1">
          <mxGeometry x="588.75" y="1633.4099999999999" width="25" height="25" as="geometry" />
        </mxCell>
        <mxCell id="wFDXV37nP9_1kI2Ee2_L-166" value="" style="endArrow=none;html=1;rounded=0;dashed=1;dashPattern=8 8;" edge="1" parent="1">
          <mxGeometry relative="1" as="geometry">
            <mxPoint x="601.25" y="1456.18" as="sourcePoint" />
            <mxPoint x="601.25" y="1616.18" as="targetPoint" />
          </mxGeometry>
        </mxCell>
        <mxCell id="wFDXV37nP9_1kI2Ee2_L-167" value="" style="endArrow=none;html=1;rounded=0;entryX=0.5;entryY=1;entryDx=0;entryDy=0;" edge="1" parent="1" target="wFDXV37nP9_1kI2Ee2_L-165">
          <mxGeometry width="50" height="50" relative="1" as="geometry">
            <mxPoint x="601.25" y="1668.4099999999999" as="sourcePoint" />
            <mxPoint x="961.25" y="1518.4099999999999" as="targetPoint" />
          </mxGeometry>
        </mxCell>
        <mxCell id="wFDXV37nP9_1kI2Ee2_L-168" value="" style="endArrow=none;html=1;rounded=0;" edge="1" parent="1">
          <mxGeometry width="50" height="50" relative="1" as="geometry">
            <mxPoint x="586.25" y="1667.9899999999998" as="sourcePoint" />
            <mxPoint x="616.25" y="1667.9899999999998" as="targetPoint" />
          </mxGeometry>
        </mxCell>
        <mxCell id="wFDXV37nP9_1kI2Ee2_L-169" value="" style="endArrow=classic;html=1;rounded=0;dashed=1;dashPattern=1 2;fontStyle=0" edge="1" parent="1">
          <mxGeometry width="50" height="50" relative="1" as="geometry">
            <mxPoint x="601.25" y="1486.18" as="sourcePoint" />
            <mxPoint x="751.25" y="1486.18" as="targetPoint" />
          </mxGeometry>
        </mxCell>
        <mxCell id="wFDXV37nP9_1kI2Ee2_L-170" value="handleEvent(cut)" style="edgeLabel;html=1;align=center;verticalAlign=middle;resizable=0;points=[];" vertex="1" connectable="0" parent="wFDXV37nP9_1kI2Ee2_L-169">
          <mxGeometry x="-0.2443" y="3" relative="1" as="geometry">
            <mxPoint as="offset" />
          </mxGeometry>
        </mxCell>
        <mxCell id="wFDXV37nP9_1kI2Ee2_L-171" value="&lt;b&gt;textEditor&lt;/b&gt;" style="rounded=1;whiteSpace=wrap;html=1;" vertex="1" parent="1">
          <mxGeometry x="721.25" y="1426.18" width="60" height="30" as="geometry" />
        </mxCell>
        <mxCell id="wFDXV37nP9_1kI2Ee2_L-172" value="" style="endArrow=none;html=1;rounded=0;dashed=1;dashPattern=8 8;" edge="1" parent="1" target="wFDXV37nP9_1kI2Ee2_L-173">
          <mxGeometry relative="1" as="geometry">
            <mxPoint x="750.83" y="1456.18" as="sourcePoint" />
            <mxPoint x="751.25" y="1636.18" as="targetPoint" />
          </mxGeometry>
        </mxCell>
        <mxCell id="wFDXV37nP9_1kI2Ee2_L-173" value="&lt;b&gt;textEditor&lt;/b&gt;" style="rounded=1;whiteSpace=wrap;html=1;" vertex="1" parent="1">
          <mxGeometry x="721.25" y="1680" width="60" height="30" as="geometry" />
        </mxCell>
        <mxCell id="wFDXV37nP9_1kI2Ee2_L-174" value="" style="edgeStyle=elbowEdgeStyle;elbow=horizontal;endArrow=classic;html=1;curved=0;rounded=0;endSize=8;startSize=8;verticalAlign=bottom;horizontal=1;" edge="1" parent="1">
          <mxGeometry width="50" height="50" relative="1" as="geometry">
            <mxPoint x="746.25" y="1591.18" as="sourcePoint" />
            <mxPoint x="746.25" y="1611.18" as="targetPoint" />
            <Array as="points">
              <mxPoint x="786.25" y="1591.18" />
            </Array>
          </mxGeometry>
        </mxCell>
        <mxCell id="wFDXV37nP9_1kI2Ee2_L-175" value="cutText()" style="edgeLabel;html=1;align=center;verticalAlign=middle;resizable=0;points=[];" vertex="1" connectable="0" parent="wFDXV37nP9_1kI2Ee2_L-174">
          <mxGeometry x="-0.5998" relative="1" as="geometry">
            <mxPoint as="offset" />
          </mxGeometry>
        </mxCell>
        <mxCell id="wFDXV37nP9_1kI2Ee2_L-176" value="user" style="text;html=1;align=center;verticalAlign=middle;whiteSpace=wrap;rounded=0;fontStyle=1" vertex="1" parent="1">
          <mxGeometry x="571.25" y="1605.04" width="60" height="30" as="geometry" />
        </mxCell>
        <mxCell id="wFDXV37nP9_1kI2Ee2_L-177" value="" style="edgeStyle=elbowEdgeStyle;elbow=horizontal;endArrow=classic;html=1;curved=0;rounded=0;endSize=8;startSize=8;verticalAlign=bottom;horizontal=1;" edge="1" parent="1">
          <mxGeometry width="50" height="50" relative="1" as="geometry">
            <mxPoint x="748.75" y="1511.18" as="sourcePoint" />
            <mxPoint x="748.75" y="1531.18" as="targetPoint" />
            <Array as="points">
              <mxPoint x="788.75" y="1511.18" />
            </Array>
          </mxGeometry>
        </mxCell>
        <mxCell id="wFDXV37nP9_1kI2Ee2_L-178" value="readText()" style="edgeLabel;html=1;align=center;verticalAlign=middle;resizable=0;points=[];" vertex="1" connectable="0" parent="wFDXV37nP9_1kI2Ee2_L-177">
          <mxGeometry x="-0.5443" y="-1" relative="1" as="geometry">
            <mxPoint as="offset" />
          </mxGeometry>
        </mxCell>
        <mxCell id="wFDXV37nP9_1kI2Ee2_L-179" value="" style="endArrow=classic;html=1;rounded=0;dashed=1;" edge="1" parent="1">
          <mxGeometry width="50" height="50" relative="1" as="geometry">
            <mxPoint x="330" y="1530" as="sourcePoint" />
            <mxPoint x="480" y="1530" as="targetPoint" />
          </mxGeometry>
        </mxCell>
        <mxCell id="wFDXV37nP9_1kI2Ee2_L-180" value="[user input]" style="edgeLabel;html=1;align=center;verticalAlign=middle;resizable=0;points=[];" vertex="1" connectable="0" parent="wFDXV37nP9_1kI2Ee2_L-179">
          <mxGeometry x="-0.0665" y="5" relative="1" as="geometry">
            <mxPoint as="offset" />
          </mxGeometry>
        </mxCell>
        <mxCell id="wFDXV37nP9_1kI2Ee2_L-181" value="" style="edgeStyle=elbowEdgeStyle;elbow=horizontal;endArrow=classic;html=1;curved=0;rounded=0;endSize=8;startSize=8;verticalAlign=bottom;horizontal=1;" edge="1" parent="1">
          <mxGeometry width="50" height="50" relative="1" as="geometry">
            <mxPoint x="490" y="1538.57" as="sourcePoint" />
            <mxPoint x="480" y="1559" as="targetPoint" />
            <Array as="points">
              <mxPoint x="530" y="1538.57" />
            </Array>
          </mxGeometry>
        </mxCell>
        <mxCell id="wFDXV37nP9_1kI2Ee2_L-182" value="getFileName()" style="edgeLabel;html=1;align=center;verticalAlign=middle;resizable=0;points=[];" vertex="1" connectable="0" parent="wFDXV37nP9_1kI2Ee2_L-181">
          <mxGeometry x="-0.5443" y="-1" relative="1" as="geometry">
            <mxPoint as="offset" />
          </mxGeometry>
        </mxCell>
        <mxCell id="wFDXV37nP9_1kI2Ee2_L-183" value="ref" style="shape=umlFrame;whiteSpace=wrap;html=1;pointerEvents=0;width=60;height=15;" vertex="1" parent="1">
          <mxGeometry x="598.75" y="1540" width="171.25" height="30" as="geometry" />
        </mxCell>
        <mxCell id="wFDXV37nP9_1kI2Ee2_L-184" value="copyText" style="text;html=1;align=center;verticalAlign=middle;resizable=0;points=[];autosize=1;strokeColor=none;fillColor=none;fontSize=10;" vertex="1" parent="1">
          <mxGeometry x="649.3794018445321" y="1539.9999999999995" width="70" height="30" as="geometry" />
        </mxCell>
        <mxCell id="wFDXV37nP9_1kI2Ee2_L-185" value="" style="edgeStyle=elbowEdgeStyle;elbow=horizontal;endArrow=classic;html=1;curved=0;rounded=0;endSize=8;startSize=8;verticalAlign=bottom;horizontal=1;" edge="1" parent="1">
          <mxGeometry width="50" height="50" relative="1" as="geometry">
            <mxPoint x="750" y="1636.22" as="sourcePoint" />
            <mxPoint x="750" y="1656.22" as="targetPoint" />
            <Array as="points">
              <mxPoint x="790" y="1636.22" />
            </Array>
          </mxGeometry>
        </mxCell>
        <mxCell id="wFDXV37nP9_1kI2Ee2_L-186" value="viewCurr()" style="edgeLabel;html=1;align=center;verticalAlign=middle;resizable=0;points=[];" vertex="1" connectable="0" parent="wFDXV37nP9_1kI2Ee2_L-185">
          <mxGeometry x="-0.5998" relative="1" as="geometry">
            <mxPoint as="offset" />
          </mxGeometry>
        </mxCell>
        <mxCell id="wFDXV37nP9_1kI2Ee2_L-187" value="user" style="shape=umlActor;verticalLabelPosition=bottom;verticalAlign=top;html=1;fontStyle=1" vertex="1" parent="1">
          <mxGeometry x="71.25" y="1820" width="20" height="45" as="geometry" />
        </mxCell>
        <mxCell id="wFDXV37nP9_1kI2Ee2_L-188" value="" style="endArrow=none;html=1;rounded=0;dashed=1;" edge="1" parent="1">
          <mxGeometry relative="1" as="geometry">
            <mxPoint x="81.25" y="2037.2299999999998" as="sourcePoint" />
            <mxPoint x="81.25" y="2047.2299999999998" as="targetPoint" />
          </mxGeometry>
        </mxCell>
        <mxCell id="wFDXV37nP9_1kI2Ee2_L-189" value="" style="ellipse;whiteSpace=wrap;html=1;aspect=fixed;fillColor=#dae8fc;strokeColor=#6c8ebf;" vertex="1" parent="1">
          <mxGeometry x="68.75" y="2062.23" width="25" height="25" as="geometry" />
        </mxCell>
        <mxCell id="wFDXV37nP9_1kI2Ee2_L-190" value="" style="endArrow=none;html=1;rounded=0;dashed=1;dashPattern=8 8;" edge="1" parent="1">
          <mxGeometry relative="1" as="geometry">
            <mxPoint x="81.25" y="1885" as="sourcePoint" />
            <mxPoint x="81.25" y="2045" as="targetPoint" />
          </mxGeometry>
        </mxCell>
        <mxCell id="wFDXV37nP9_1kI2Ee2_L-191" value="" style="endArrow=none;html=1;rounded=0;entryX=0.5;entryY=1;entryDx=0;entryDy=0;" edge="1" parent="1" target="wFDXV37nP9_1kI2Ee2_L-189">
          <mxGeometry width="50" height="50" relative="1" as="geometry">
            <mxPoint x="81.25" y="2097.23" as="sourcePoint" />
            <mxPoint x="441.25" y="1947.2299999999998" as="targetPoint" />
          </mxGeometry>
        </mxCell>
        <mxCell id="wFDXV37nP9_1kI2Ee2_L-192" value="" style="endArrow=none;html=1;rounded=0;" edge="1" parent="1">
          <mxGeometry width="50" height="50" relative="1" as="geometry">
            <mxPoint x="66.25" y="2096.81" as="sourcePoint" />
            <mxPoint x="96.25" y="2096.81" as="targetPoint" />
          </mxGeometry>
        </mxCell>
        <mxCell id="wFDXV37nP9_1kI2Ee2_L-193" value="" style="endArrow=classic;html=1;rounded=0;dashed=1;dashPattern=1 2;fontStyle=0" edge="1" parent="1">
          <mxGeometry width="50" height="50" relative="1" as="geometry">
            <mxPoint x="81.25" y="1915" as="sourcePoint" />
            <mxPoint x="231.25" y="1915" as="targetPoint" />
          </mxGeometry>
        </mxCell>
        <mxCell id="wFDXV37nP9_1kI2Ee2_L-194" value="handleEvent(copy)" style="edgeLabel;html=1;align=center;verticalAlign=middle;resizable=0;points=[];" vertex="1" connectable="0" parent="wFDXV37nP9_1kI2Ee2_L-193">
          <mxGeometry x="-0.2443" y="3" relative="1" as="geometry">
            <mxPoint as="offset" />
          </mxGeometry>
        </mxCell>
        <mxCell id="wFDXV37nP9_1kI2Ee2_L-195" value="&lt;b&gt;textEditor&lt;/b&gt;" style="rounded=1;whiteSpace=wrap;html=1;" vertex="1" parent="1">
          <mxGeometry x="201.25" y="1855" width="60" height="30" as="geometry" />
        </mxCell>
        <mxCell id="wFDXV37nP9_1kI2Ee2_L-196" value="" style="endArrow=none;html=1;rounded=0;dashed=1;dashPattern=8 8;" edge="1" parent="1" target="wFDXV37nP9_1kI2Ee2_L-197">
          <mxGeometry relative="1" as="geometry">
            <mxPoint x="230.83000000000004" y="1885" as="sourcePoint" />
            <mxPoint x="231.25" y="2065" as="targetPoint" />
          </mxGeometry>
        </mxCell>
        <mxCell id="wFDXV37nP9_1kI2Ee2_L-197" value="&lt;b&gt;textEditor&lt;/b&gt;" style="rounded=1;whiteSpace=wrap;html=1;" vertex="1" parent="1">
          <mxGeometry x="201.25" y="2080" width="60" height="30" as="geometry" />
        </mxCell>
        <mxCell id="wFDXV37nP9_1kI2Ee2_L-198" value="" style="edgeStyle=elbowEdgeStyle;elbow=horizontal;endArrow=classic;html=1;curved=0;rounded=0;endSize=8;startSize=8;verticalAlign=bottom;horizontal=1;" edge="1" parent="1">
          <mxGeometry width="50" height="50" relative="1" as="geometry">
            <mxPoint x="226.25" y="1990" as="sourcePoint" />
            <mxPoint x="226.25" y="2010" as="targetPoint" />
            <Array as="points">
              <mxPoint x="266.25" y="1990" />
            </Array>
          </mxGeometry>
        </mxCell>
        <mxCell id="wFDXV37nP9_1kI2Ee2_L-199" value="copyText()" style="edgeLabel;html=1;align=center;verticalAlign=middle;resizable=0;points=[];" vertex="1" connectable="0" parent="wFDXV37nP9_1kI2Ee2_L-198">
          <mxGeometry x="-0.5998" relative="1" as="geometry">
            <mxPoint as="offset" />
          </mxGeometry>
        </mxCell>
        <mxCell id="wFDXV37nP9_1kI2Ee2_L-200" value="user" style="text;html=1;align=center;verticalAlign=middle;whiteSpace=wrap;rounded=0;fontStyle=1" vertex="1" parent="1">
          <mxGeometry x="51.25" y="2033.86" width="60" height="30" as="geometry" />
        </mxCell>
        <mxCell id="wFDXV37nP9_1kI2Ee2_L-201" value="" style="edgeStyle=elbowEdgeStyle;elbow=horizontal;endArrow=classic;html=1;curved=0;rounded=0;endSize=8;startSize=8;verticalAlign=bottom;horizontal=1;" edge="1" parent="1">
          <mxGeometry width="50" height="50" relative="1" as="geometry">
            <mxPoint x="228.75" y="1940" as="sourcePoint" />
            <mxPoint x="228.75" y="1960" as="targetPoint" />
            <Array as="points">
              <mxPoint x="268.75" y="1940" />
            </Array>
          </mxGeometry>
        </mxCell>
        <mxCell id="wFDXV37nP9_1kI2Ee2_L-202" value="readText()" style="edgeLabel;html=1;align=center;verticalAlign=middle;resizable=0;points=[];" vertex="1" connectable="0" parent="wFDXV37nP9_1kI2Ee2_L-201">
          <mxGeometry x="-0.5443" y="-1" relative="1" as="geometry">
            <mxPoint as="offset" />
          </mxGeometry>
        </mxCell>
        <mxCell id="wFDXV37nP9_1kI2Ee2_L-203" value="" style="edgeStyle=elbowEdgeStyle;elbow=horizontal;endArrow=classic;html=1;curved=0;rounded=0;endSize=8;startSize=8;verticalAlign=bottom;horizontal=1;" edge="1" parent="1">
          <mxGeometry width="50" height="50" relative="1" as="geometry">
            <mxPoint x="230" y="2035.04" as="sourcePoint" />
            <mxPoint x="230" y="2055.04" as="targetPoint" />
            <Array as="points">
              <mxPoint x="270" y="2035.04" />
            </Array>
          </mxGeometry>
        </mxCell>
        <mxCell id="wFDXV37nP9_1kI2Ee2_L-204" value="viewCurr()" style="edgeLabel;html=1;align=center;verticalAlign=middle;resizable=0;points=[];" vertex="1" connectable="0" parent="wFDXV37nP9_1kI2Ee2_L-203">
          <mxGeometry x="-0.5998" relative="1" as="geometry">
            <mxPoint as="offset" />
          </mxGeometry>
        </mxCell>
      </root>
    </mxGraphModel>
  </diagram>
</mxfile>
